G04 DipTrace 3.3.1.2*
G04 BoardOutline.gbr*
%MOIN*%
G04 #@! TF.FileFunction,Profile*
G04 #@! TF.Part,Single*
%ADD11C,0.005512*%
%FSLAX26Y26*%
G04*
G70*
G90*
G75*
G01*
G04 BoardOutline*
%LPD*%
X393701Y2318701D2*
D11*
X412450Y2287451D1*
X443701Y2243701D1*
X474951Y2206201D1*
X493701Y2187451D1*
X499951Y2162451D1*
X487450Y2149950D1*
Y1999950D1*
X474951Y1962451D1*
X456201Y1924950D1*
Y1893701D1*
Y1856201D1*
Y1824951D1*
X468701Y1799951D1*
X493701Y1781201D1*
X512450Y1762451D1*
X487450Y1737451D1*
X474951Y1718701D1*
X462450Y1693701D1*
X437450Y1649950D1*
X399951Y1531201D1*
Y1362451D1*
Y1187451D1*
X481201Y787451D1*
X618701Y506201D1*
X656201Y618701D1*
X699951Y424950D1*
X749951Y512451D1*
X806201Y393701D1*
X1237450D1*
X1262450Y518701D1*
X1356201Y431201D1*
X1424951Y681201D1*
X1493701Y568701D1*
X1587450Y918701D1*
X1618701Y1212451D1*
X1581201Y1581201D1*
X1531201Y1681201D1*
X1487450Y1724950D1*
X1443701Y1756201D1*
X1474951Y1812451D1*
X1499951Y1856201D1*
X1506201Y1912451D1*
X1499951Y1937451D1*
X1487450Y1962451D1*
X1474951Y1999950D1*
X1468701Y2056201D1*
Y2124951D1*
Y2162451D1*
X1462450Y2174950D1*
X1531201Y2274950D1*
X1556201Y2306201D1*
X1562450Y2331201D1*
Y2374950D1*
X1537450Y2393701D1*
X1506201D1*
Y2549951D1*
X1493701Y2562451D1*
X1462450Y2574951D1*
X1374951D1*
X1331201Y2556201D1*
X1312450Y2543701D1*
X1268701Y2506201D1*
X1237450Y2468701D1*
X1212450Y2437451D1*
X749951D1*
X724951Y2474950D1*
X693701Y2512451D1*
X668701Y2537451D1*
X631201Y2562451D1*
X593701Y2581201D1*
X531201Y2574951D1*
X474951D1*
X462450Y2562451D1*
X449951Y2543701D1*
Y2399950D1*
X431201D1*
X399951Y2374950D1*
Y2337451D1*
X393701Y2318701D1*
M02*
