G04 DipTrace 3.3.1.2*
G04 BottomSilk.gbr*
%MOIN*%
G04 #@! TF.FileFunction,Legend,Bot*
G04 #@! TF.Part,Single*
%ADD10C,0.009843*%
%ADD63C,0.004632*%
%ADD64C,0.00772*%
%ADD65C,0.006176*%
%ADD67C,0.012351*%
%FSLAX26Y26*%
G04*
G70*
G90*
G75*
G01*
G04 BotSilk*
%LPD*%
X1017129Y2218212D2*
D10*
Y2332375D1*
X1024431Y2218212D2*
Y2332375D1*
Y2218212D2*
X914348D1*
X1024431Y2332375D2*
X914348D1*
X1406602Y1506300D2*
X1316946Y874992D1*
X1272904Y1676631D2*
X1406602Y1506300D1*
X1134986Y749404D2*
X1316946Y874992D1*
X765706Y1527753D2*
G02X699815Y1063673I-227769J-204379D01*
G01*
X765706Y1527753D2*
X800028Y1769107D1*
X917568Y1752367D2*
X800028Y1769107D1*
X699815Y1063673D2*
X660297Y785202D1*
X777838Y768462D1*
X498574Y1004237D2*
D63*
X528718D1*
Y991304D1*
X527259Y986993D1*
X525833Y985567D1*
X522981Y984141D1*
X518670D1*
X515785Y985567D1*
X514359Y986993D1*
X512933Y991304D1*
X511474Y986993D1*
X510048Y985567D1*
X507196Y984141D1*
X504311D1*
X501459Y985567D1*
X500000Y986993D1*
X498574Y991304D1*
Y1004237D1*
X512933D2*
Y991304D1*
Y974878D2*
Y961978D1*
X511474Y957667D1*
X510048Y956208D1*
X507196Y954782D1*
X504311D1*
X501459Y956208D1*
X500000Y957667D1*
X498574Y961978D1*
Y974878D1*
X528718D1*
X512933Y964830D2*
X528718Y954782D1*
X504344Y945518D2*
X502885Y942633D1*
X498607Y938322D1*
X528718D1*
X1468158Y1058405D2*
X1498302D1*
Y1045472D1*
X1496843Y1041161D1*
X1495417Y1039735D1*
X1492565Y1038309D1*
X1488254D1*
X1485369Y1039735D1*
X1483943Y1041161D1*
X1482517Y1045472D1*
X1481058Y1041161D1*
X1479632Y1039735D1*
X1476780Y1038309D1*
X1473895D1*
X1471043Y1039735D1*
X1469584Y1041161D1*
X1468158Y1045472D1*
Y1058405D1*
X1482517D2*
Y1045472D1*
Y1029045D2*
Y1016146D1*
X1481058Y1011835D1*
X1479632Y1010375D1*
X1476780Y1008949D1*
X1473895D1*
X1471043Y1010375D1*
X1469584Y1011835D1*
X1468158Y1016146D1*
Y1029045D1*
X1498302D1*
X1482517Y1018997D2*
X1498302Y1008949D1*
X1475354Y998227D2*
X1473928D1*
X1471043Y996801D1*
X1469617Y995375D1*
X1468191Y992490D1*
Y986753D1*
X1469617Y983901D1*
X1471043Y982475D1*
X1473928Y981016D1*
X1476780D1*
X1479665Y982475D1*
X1483943Y985327D1*
X1498302Y999686D1*
Y979590D1*
X749898Y1734789D2*
Y1711841D1*
X751324Y1707530D1*
X752783Y1706104D1*
X755635Y1704645D1*
X758520D1*
X761372Y1706104D1*
X762797Y1707530D1*
X764257Y1711841D1*
Y1714693D1*
X739175Y1727593D2*
Y1729019D1*
X737749Y1731904D1*
X736323Y1733330D1*
X733438Y1734756D1*
X727701D1*
X724849Y1733330D1*
X723423Y1731904D1*
X721964Y1729019D1*
Y1726167D1*
X723423Y1723282D1*
X726275Y1719004D1*
X740634Y1704645D1*
X720538D1*
X713857Y1409539D2*
D64*
X709104Y1411678D1*
X704296Y1416006D1*
X701919Y1420284D1*
Y1428889D1*
X704296Y1433217D1*
X709104Y1437495D1*
X713857Y1439683D1*
X721042Y1441822D1*
X733036D1*
X740166Y1439683D1*
X744974Y1437495D1*
X749727Y1433217D1*
X752159Y1428889D1*
Y1420284D1*
X749727Y1416006D1*
X744974Y1411678D1*
X740166Y1409539D1*
X725851Y1395644D2*
Y1376294D1*
X723419Y1369827D1*
X721042Y1367639D1*
X716289Y1365500D1*
X711481D1*
X706728Y1367639D1*
X704296Y1369827D1*
X701919Y1376294D1*
Y1395644D1*
X752159D1*
X725851Y1380572D2*
X752159Y1365500D1*
X713913Y1349416D2*
X711536D1*
X706728Y1347277D1*
X704351Y1345138D1*
X701974Y1340810D1*
Y1332205D1*
X704351Y1327927D1*
X706728Y1325788D1*
X711536Y1323600D1*
X716289Y1323599D1*
X721098Y1325788D1*
X728227Y1330066D1*
X752159Y1351605D1*
Y1321461D1*
X701974Y1294632D2*
X704351Y1301099D1*
X711536Y1305426D1*
X723474Y1307565D1*
X730659D1*
X742597Y1305426D1*
X749782Y1301099D1*
X752159Y1294632D1*
Y1290354D1*
X749782Y1283888D1*
X742597Y1279610D1*
X730659Y1277421D1*
X723474D1*
X711536Y1279610D1*
X704351Y1283888D1*
X701974Y1290354D1*
Y1294632D1*
X711536Y1279610D2*
X742597Y1305426D1*
X701974Y1259198D2*
Y1235571D1*
X721098Y1248454D1*
Y1241987D1*
X723474Y1237710D1*
X725851Y1235571D1*
X733036Y1233382D1*
X737789D1*
X744974Y1235571D1*
X749782Y1239848D1*
X752159Y1246315D1*
Y1252782D1*
X749782Y1259198D1*
X747351Y1261337D1*
X742597Y1263526D1*
X713913Y1217298D2*
X711536D1*
X706728Y1215159D1*
X704351Y1213020D1*
X701974Y1208693D1*
Y1200087D1*
X704351Y1195809D1*
X706727Y1193670D1*
X711536Y1191482D1*
X716289D1*
X721098Y1193670D1*
X728227Y1197948D1*
X752159Y1219487D1*
Y1189343D1*
X1330519Y610205D2*
X1332658Y614958D1*
X1336985Y619767D1*
X1341263Y622143D1*
X1349868D1*
X1354196Y619767D1*
X1358474Y614958D1*
X1360663Y610205D1*
X1362802Y603020D1*
Y591027D1*
X1360663Y583897D1*
X1358474Y579088D1*
X1354196Y574335D1*
X1349868Y571903D1*
X1341263D1*
X1336985Y574335D1*
X1332658Y579088D1*
X1330519Y583897D1*
X1305879Y605397D2*
X1310157Y603020D1*
X1314484Y598212D1*
X1316623Y591027D1*
Y586273D1*
X1314484Y579088D1*
X1310157Y574335D1*
X1305879Y571903D1*
X1299412D1*
X1295085Y574335D1*
X1290807Y579088D1*
X1288618Y586273D1*
Y591027D1*
X1290807Y598212D1*
X1295085Y603020D1*
X1299412Y605397D1*
X1305879D1*
X1274723D2*
Y571903D1*
Y595835D2*
X1268256Y603020D1*
X1263929Y605397D1*
X1257512D1*
X1253184Y603020D1*
X1251045Y595835D1*
Y571903D1*
Y595835D2*
X1244579Y603020D1*
X1240251Y605397D1*
X1233835D1*
X1229507Y603020D1*
X1227318Y595835D1*
Y571903D1*
X1213423Y605397D2*
Y555157D1*
Y598212D2*
X1209095Y602965D1*
X1204817Y605397D1*
X1198351D1*
X1194023Y602965D1*
X1189745Y598212D1*
X1187557Y591027D1*
Y586218D1*
X1189745Y579088D1*
X1194023Y574280D1*
X1198351Y571903D1*
X1204817D1*
X1209095Y574280D1*
X1213423Y579088D1*
X1173661Y605397D2*
Y581465D1*
X1171523Y574335D1*
X1167195Y571903D1*
X1160728D1*
X1156451Y574335D1*
X1149984Y581465D1*
Y605397D2*
Y571903D1*
X1129622Y622143D2*
Y581465D1*
X1127483Y574335D1*
X1123156Y571903D1*
X1118878D1*
X1136089Y605397D2*
X1121017D1*
X1104982Y591027D2*
X1079166D1*
Y595835D1*
X1081305Y600643D1*
X1083444Y603020D1*
X1087771Y605397D1*
X1094238D1*
X1098516Y603020D1*
X1102843Y598212D1*
X1104982Y591027D1*
Y586273D1*
X1102843Y579088D1*
X1098516Y574335D1*
X1094238Y571903D1*
X1087771D1*
X1083444Y574335D1*
X1079166Y579088D1*
X1065271Y605397D2*
Y571903D1*
Y591027D2*
X1063082Y598212D1*
X1058804Y603020D1*
X1054477Y605397D1*
X1048010D1*
X960230Y614958D2*
X964508Y619767D1*
X970974Y622143D1*
X979580D1*
X986046Y619767D1*
X990374Y614958D1*
Y610205D1*
X988185Y605397D1*
X986046Y603020D1*
X981768Y600643D1*
X968835Y595835D1*
X964508Y593458D1*
X962369Y591027D1*
X960230Y586273D1*
Y579088D1*
X964508Y574335D1*
X970974Y571903D1*
X979580D1*
X986046Y574335D1*
X990374Y579088D1*
X944146Y605397D2*
X931262Y571903D1*
X935540Y562342D1*
X939868Y557533D1*
X944146Y555157D1*
X946334D1*
X918329Y605397D2*
X931262Y571903D1*
X880757Y598212D2*
X882896Y603020D1*
X889362Y605397D1*
X895829D1*
X902295Y603020D1*
X904434Y598212D1*
X902295Y593458D1*
X897968Y591027D1*
X887223Y588650D1*
X882896Y586273D1*
X880757Y581465D1*
Y579088D1*
X882896Y574335D1*
X889362Y571903D1*
X895829D1*
X902295Y574335D1*
X904434Y579088D1*
X860395Y622143D2*
Y581465D1*
X858256Y574335D1*
X853928Y571903D1*
X849650D1*
X866861Y605397D2*
X851789D1*
X835755Y591027D2*
X809939D1*
Y595835D1*
X812078Y600643D1*
X814217Y603020D1*
X818544Y605397D1*
X825011D1*
X829289Y603020D1*
X833616Y598212D1*
X835755Y591027D1*
Y586273D1*
X833616Y579088D1*
X829289Y574335D1*
X825011Y571903D1*
X818544D1*
X814217Y574335D1*
X809939Y579088D1*
X796043Y605397D2*
Y571903D1*
Y595835D2*
X789577Y603020D1*
X785249Y605397D1*
X778832D1*
X774505Y603020D1*
X772366Y595835D1*
Y571903D1*
Y595835D2*
X765899Y603020D1*
X761572Y605397D1*
X755155D1*
X750827Y603020D1*
X748639Y595835D1*
Y571903D1*
X711066Y598212D2*
X713205Y603020D1*
X719671Y605397D1*
X726138D1*
X732604Y603020D1*
X734743Y598212D1*
X732604Y593458D1*
X728277Y591027D1*
X717532Y588650D1*
X713205Y586273D1*
X711066Y581465D1*
Y579088D1*
X713205Y574335D1*
X719671Y571903D1*
X726138D1*
X732604Y574335D1*
X734743Y579088D1*
X1130170Y1562182D2*
D63*
Y1532038D1*
X1112084Y1562182D2*
X1130170Y1542086D1*
X1123724Y1549282D2*
X1112084Y1532038D1*
X1103747Y1546397D2*
X1092107D1*
X1088257Y1547823D1*
X1086944Y1549282D1*
X1085660Y1552134D1*
Y1556445D1*
X1086944Y1559297D1*
X1088257Y1560756D1*
X1092107Y1562182D1*
X1103747D1*
Y1532038D1*
X1049765Y1554986D2*
Y1556412D1*
X1048482Y1559297D1*
X1047199Y1560723D1*
X1044602Y1562149D1*
X1039439D1*
X1036872Y1560723D1*
X1035589Y1559297D1*
X1034276Y1556412D1*
Y1553560D1*
X1035589Y1550675D1*
X1038155Y1546397D1*
X1051079Y1532038D1*
X1032992D1*
X1016895Y1562149D2*
X1020775Y1560723D1*
X1023372Y1556412D1*
X1024655Y1549249D1*
Y1544938D1*
X1023372Y1537775D1*
X1020775Y1533464D1*
X1016895Y1532038D1*
X1014328D1*
X1010449Y1533464D1*
X1007882Y1537775D1*
X1006569Y1544938D1*
Y1549249D1*
X1007882Y1556412D1*
X1010449Y1560723D1*
X1014328Y1562149D1*
X1016895D1*
X1007882Y1556412D2*
X1023372Y1537775D1*
X996918Y1554986D2*
Y1556412D1*
X995635Y1559297D1*
X994351Y1560723D1*
X991755Y1562149D1*
X986592D1*
X984025Y1560723D1*
X982742Y1559297D1*
X981428Y1556412D1*
Y1553560D1*
X982742Y1550675D1*
X985308Y1546397D1*
X998231Y1532038D1*
X980145D1*
X964048Y1562149D2*
X967928Y1560723D1*
X970524Y1556412D1*
X971808Y1549249D1*
Y1544938D1*
X970524Y1537775D1*
X967928Y1533464D1*
X964048Y1532038D1*
X961481D1*
X957601Y1533464D1*
X955035Y1537775D1*
X953721Y1544938D1*
Y1549249D1*
X955035Y1556412D1*
X957601Y1560723D1*
X961481Y1562149D1*
X964048D1*
X955035Y1556412D2*
X970524Y1537775D1*
X1386256Y725340D2*
D65*
Y685148D1*
X1374198D1*
X1369025Y687094D1*
X1365563Y690896D1*
X1363852Y694743D1*
X1362141Y700447D1*
Y710042D1*
X1363852Y715790D1*
X1365563Y719592D1*
X1369025Y723439D1*
X1374198Y725340D1*
X1386256D1*
X1351024Y700447D2*
X1330371D1*
Y704294D1*
X1332082Y708141D1*
X1333794Y710042D1*
X1337256Y711943D1*
X1342429D1*
X1345851Y710042D1*
X1349313Y706195D1*
X1351024Y700447D1*
Y696645D1*
X1349313Y690896D1*
X1345851Y687094D1*
X1342429Y685148D1*
X1337256D1*
X1333794Y687094D1*
X1330371Y690896D1*
X1319255Y711943D2*
Y671751D1*
Y706195D2*
X1315793Y709998D1*
X1312371Y711943D1*
X1307197D1*
X1303735Y709998D1*
X1300313Y706195D1*
X1298562Y700447D1*
Y696600D1*
X1300313Y690896D1*
X1303735Y687050D1*
X1307197Y685148D1*
X1312371D1*
X1315793Y687050D1*
X1319255Y690896D1*
X1282273Y725340D2*
Y692798D1*
X1280561Y687094D1*
X1277099Y685148D1*
X1273677D1*
X1287446Y711943D2*
X1275388D1*
X1260850Y688995D2*
X1262561Y687050D1*
X1260850Y685148D1*
X1259099Y687050D1*
X1260850Y688995D1*
X1204394Y711943D2*
X1207817Y710042D1*
X1211279Y706195D1*
X1212990Y700447D1*
Y696645D1*
X1211279Y690896D1*
X1207817Y687094D1*
X1204394Y685148D1*
X1199221D1*
X1195759Y687094D1*
X1192337Y690896D1*
X1190586Y696645D1*
Y700447D1*
X1192337Y706195D1*
X1195759Y710042D1*
X1199221Y711943D1*
X1204394D1*
X1165701Y725340D2*
X1169123D1*
X1172585Y723439D1*
X1174296Y717691D1*
Y685148D1*
X1179469Y711943D2*
X1167412D1*
X1192315Y509801D2*
D64*
X1223376D1*
Y459561D1*
X1192315D1*
X1223376Y485869D2*
X1204253D1*
X1176875Y493054D2*
Y459561D1*
Y483492D2*
X1169690Y490678D1*
X1164882Y493054D1*
X1157752D1*
X1152944Y490678D1*
X1150567Y483492D1*
Y459561D1*
X1106443Y490678D2*
Y452376D1*
X1108819Y445246D1*
X1111196Y442814D1*
X1116004Y440438D1*
X1123190D1*
X1127943Y442814D1*
X1106443Y483492D2*
X1111196Y488246D1*
X1116004Y490678D1*
X1123190D1*
X1127943Y488246D1*
X1132751Y483492D1*
X1135128Y476307D1*
Y471499D1*
X1132751Y464369D1*
X1127943Y459561D1*
X1123190Y457184D1*
X1116004D1*
X1111196Y459561D1*
X1106443Y464369D1*
X1091004Y509801D2*
X1088627Y507424D1*
X1086195Y509801D1*
X1088627Y512233D1*
X1091004Y509801D1*
X1088627Y493054D2*
Y459561D1*
X1070756Y493054D2*
Y459561D1*
Y483492D2*
X1063571Y490678D1*
X1058762Y493054D1*
X1051633D1*
X1046824Y490678D1*
X1044448Y483492D1*
Y459561D1*
X1029008Y478684D2*
X1000323D1*
Y483492D1*
X1002700Y488301D1*
X1005077Y490678D1*
X1009885Y493054D1*
X1017070D1*
X1021823Y490678D1*
X1026632Y485869D1*
X1029008Y478684D1*
Y473931D1*
X1026632Y466746D1*
X1021823Y461993D1*
X1017070Y459561D1*
X1009885D1*
X1005077Y461993D1*
X1000323Y466746D1*
X984884Y478684D2*
X956199D1*
Y483492D1*
X958576Y488301D1*
X960953Y490678D1*
X965761Y493054D1*
X972946D1*
X977699Y490678D1*
X982508Y485869D1*
X984884Y478684D1*
Y473931D1*
X982508Y466746D1*
X977699Y461993D1*
X972946Y459561D1*
X965761D1*
X960953Y461993D1*
X956199Y466746D1*
X940760Y493054D2*
Y459561D1*
Y478684D2*
X938328Y485869D1*
X933575Y490678D1*
X928767Y493054D1*
X921582D1*
X906142Y509801D2*
X903766Y507424D1*
X901334Y509801D1*
X903766Y512233D1*
X906142Y509801D1*
X903766Y493054D2*
Y459561D1*
X885895Y493054D2*
Y459561D1*
Y483492D2*
X878710Y490678D1*
X873901Y493054D1*
X866771D1*
X861963Y490678D1*
X859586Y483492D1*
Y459561D1*
X815462Y490678D2*
Y452376D1*
X817839Y445246D1*
X820215Y442814D1*
X825024Y440438D1*
X832209D1*
X836962Y442814D1*
X815462Y483492D2*
X820215Y488246D1*
X825024Y490678D1*
X832209D1*
X836962Y488246D1*
X841770Y483492D1*
X844147Y476307D1*
Y471499D1*
X841770Y464369D1*
X836962Y459561D1*
X832209Y457184D1*
X825024D1*
X820215Y459561D1*
X815462Y464369D1*
X1190549Y1492626D2*
D63*
Y1469678D1*
X1191832Y1465367D1*
X1193145Y1463941D1*
X1195712Y1462482D1*
X1198309D1*
X1200875Y1463941D1*
X1202159Y1465367D1*
X1203472Y1469678D1*
Y1472530D1*
X1182212Y1492626D2*
Y1462482D1*
X1166722D1*
X1139015Y1485463D2*
X1140298Y1488315D1*
X1142895Y1491200D1*
X1145462Y1492626D1*
X1150625D1*
X1153221Y1491200D1*
X1155788Y1488315D1*
X1157101Y1485463D1*
X1158385Y1481152D1*
Y1473956D1*
X1157101Y1469678D1*
X1155788Y1466793D1*
X1153221Y1463941D1*
X1150625Y1462482D1*
X1145462D1*
X1142895Y1463941D1*
X1140298Y1466793D1*
X1139015Y1469678D1*
X1117755Y1492626D2*
Y1469678D1*
X1119038Y1465367D1*
X1120351Y1463941D1*
X1122918Y1462482D1*
X1125514D1*
X1128081Y1463941D1*
X1129365Y1465367D1*
X1130678Y1469678D1*
Y1472530D1*
X1109417Y1492626D2*
Y1462482D1*
X1093928D1*
X1066221Y1485463D2*
X1067504Y1488315D1*
X1070101Y1491200D1*
X1072667Y1492626D1*
X1077831D1*
X1080427Y1491200D1*
X1082994Y1488315D1*
X1084307Y1485463D1*
X1085590Y1481152D1*
Y1473956D1*
X1084307Y1469678D1*
X1082994Y1466793D1*
X1080427Y1463941D1*
X1077831Y1462482D1*
X1072667D1*
X1070101Y1463941D1*
X1067504Y1466793D1*
X1066221Y1469678D1*
X1044960Y1492626D2*
Y1469678D1*
X1046244Y1465367D1*
X1047557Y1463941D1*
X1050124Y1462482D1*
X1052720D1*
X1055287Y1463941D1*
X1056570Y1465367D1*
X1057883Y1469678D1*
Y1472530D1*
X1036623Y1492626D2*
Y1462482D1*
X1021133D1*
X993426Y1485463D2*
X994710Y1488315D1*
X997306Y1491200D1*
X999873Y1492626D1*
X1005036D1*
X1007633Y1491200D1*
X1010200Y1488315D1*
X1011513Y1485463D1*
X1012796Y1481152D1*
Y1473956D1*
X1011513Y1469678D1*
X1010200Y1466793D1*
X1007633Y1463941D1*
X1005036Y1462482D1*
X999873D1*
X997306Y1463941D1*
X994710Y1466793D1*
X993426Y1469678D1*
X972166Y1492626D2*
Y1469678D1*
X973449Y1465367D1*
X974763Y1463941D1*
X977329Y1462482D1*
X979926D1*
X982493Y1463941D1*
X983776Y1465367D1*
X985089Y1469678D1*
Y1472530D1*
X963829Y1492626D2*
Y1462482D1*
X948339D1*
X920632Y1485463D2*
X921915Y1488315D1*
X924512Y1491200D1*
X927079Y1492626D1*
X932242D1*
X934838Y1491200D1*
X937405Y1488315D1*
X938718Y1485463D1*
X940002Y1481152D1*
Y1473956D1*
X938718Y1469678D1*
X937405Y1466793D1*
X934838Y1463941D1*
X932242Y1462482D1*
X927079D1*
X924512Y1463941D1*
X921915Y1466793D1*
X920632Y1469678D1*
X1418435Y1932902D2*
D67*
X1426040Y1929100D1*
X1433733Y1921406D1*
X1437536Y1909910D1*
Y1902305D1*
X1433733Y1890809D1*
X1426040Y1883204D1*
X1418435Y1879313D1*
X1406939D1*
X1399245Y1883204D1*
X1391640Y1890809D1*
X1387749Y1902305D1*
Y1909910D1*
X1391640Y1921406D1*
X1399245Y1929100D1*
X1406939Y1932902D1*
X1418435D1*
X1363046Y1959697D2*
X1359244Y1955894D1*
X1355353Y1959697D1*
X1359244Y1963588D1*
X1363046Y1959697D1*
X1359244Y1932902D2*
Y1879313D1*
X1319154Y1959697D2*
Y1894611D1*
X1315352Y1883204D1*
X1307658Y1879313D1*
X1300053D1*
X1330650Y1932902D2*
X1303855D1*
X1271548Y1887006D2*
X1275350Y1883115D1*
X1271548Y1879313D1*
X1267657Y1883115D1*
X1271548Y1887006D1*
X1242954Y1909910D2*
X1197058D1*
Y1917604D1*
X1200861Y1925297D1*
X1204663Y1929100D1*
X1212357Y1932902D1*
X1223853D1*
X1231458Y1929100D1*
X1239151Y1921406D1*
X1242954Y1909910D1*
Y1902305D1*
X1239151Y1890809D1*
X1231458Y1883204D1*
X1223853Y1879313D1*
X1212357D1*
X1204663Y1883204D1*
X1197058Y1890809D1*
X1126459Y1959697D2*
Y1879313D1*
Y1921406D2*
X1134064Y1929100D1*
X1141758Y1932902D1*
X1153254D1*
X1160859Y1929100D1*
X1168553Y1921406D1*
X1172355Y1909910D1*
Y1902305D1*
X1168553Y1890809D1*
X1160859Y1883204D1*
X1153254Y1879313D1*
X1141758D1*
X1134064Y1883204D1*
X1126459Y1890809D1*
X1101757Y1932902D2*
Y1894611D1*
X1097954Y1883204D1*
X1090261Y1879313D1*
X1078764D1*
X1071159Y1883204D1*
X1059663Y1894611D1*
Y1932902D2*
Y1879313D1*
X1034960D2*
X981371Y1959608D1*
X956668Y1932902D2*
Y1879313D1*
Y1917604D2*
X945172Y1929100D1*
X937479Y1932902D1*
X926071D1*
X918378Y1929100D1*
X914575Y1917604D1*
Y1879313D1*
Y1917604D2*
X903079Y1929100D1*
X895386Y1932902D1*
X883978D1*
X876284Y1929100D1*
X872393Y1917604D1*
Y1879313D1*
X847691Y1959697D2*
X843888Y1955894D1*
X839997Y1959697D1*
X843888Y1963588D1*
X847691Y1959697D1*
X843888Y1932902D2*
Y1879313D1*
X815294Y1932902D2*
Y1879313D1*
Y1917604D2*
X803798Y1929100D1*
X796105Y1932902D1*
X784697D1*
X777004Y1929100D1*
X773201Y1917604D1*
Y1879313D1*
X748498Y1959697D2*
X744696Y1955894D1*
X740805Y1959697D1*
X744696Y1963588D1*
X748498Y1959697D1*
X744696Y1932902D2*
Y1879313D1*
X697001Y1932902D2*
X704606Y1929100D1*
X712299Y1921406D1*
X716102Y1909910D1*
Y1902305D1*
X712299Y1890809D1*
X704606Y1883204D1*
X697001Y1879313D1*
X685505D1*
X677811Y1883204D1*
X670206Y1890809D1*
X666315Y1902305D1*
Y1909910D1*
X670206Y1921406D1*
X677811Y1929100D1*
X685505Y1932902D1*
X697001D1*
X641612D2*
X626314Y1879313D1*
X611015Y1932902D1*
X595716Y1879313D1*
X580418Y1932902D1*
X555715Y1959697D2*
Y1879313D1*
X637568Y657289D2*
D65*
X626072Y630494D1*
X614620Y657289D1*
X598422Y670642D2*
X577419D1*
X588871Y655344D1*
X583123D1*
X579320Y653442D1*
X577419Y651541D1*
X575474Y645793D1*
Y641990D1*
X577419Y636242D1*
X581222Y632396D1*
X586970Y630494D1*
X592718D1*
X598422Y632396D1*
X600323Y634341D1*
X602268Y638144D1*
X1431822Y2057881D2*
D64*
Y2007641D1*
X1406005D1*
X1392110Y2026764D2*
X1366294D1*
Y2031572D1*
X1368433Y2036381D1*
X1370571Y2038757D1*
X1374899Y2041134D1*
X1381366D1*
X1385643Y2038757D1*
X1389971Y2033949D1*
X1392110Y2026764D1*
Y2022011D1*
X1389971Y2014826D1*
X1385643Y2010072D1*
X1381366Y2007641D1*
X1374899D1*
X1370571Y2010072D1*
X1366294Y2014826D1*
X1326582Y2041134D2*
Y2007641D1*
Y2033949D2*
X1330860Y2038757D1*
X1335187Y2041134D1*
X1341604D1*
X1345932Y2038757D1*
X1350210Y2033949D1*
X1352398Y2026764D1*
Y2022011D1*
X1350210Y2014826D1*
X1345932Y2010072D1*
X1341604Y2007641D1*
X1335187D1*
X1330860Y2010072D1*
X1326582Y2014826D1*
X1312687Y2041134D2*
Y2007641D1*
Y2026764D2*
X1310498Y2033949D1*
X1306220Y2038757D1*
X1301892Y2041134D1*
X1295426D1*
X1281531D2*
Y2007641D1*
Y2031572D2*
X1275064Y2038757D1*
X1270736Y2041134D1*
X1264320D1*
X1259992Y2038757D1*
X1257853Y2031572D1*
Y2007641D1*
X1200217Y2041134D2*
Y2007641D1*
Y2031572D2*
X1193750Y2038757D1*
X1189423Y2041134D1*
X1183006D1*
X1178678Y2038757D1*
X1176539Y2031572D1*
Y2007641D1*
Y2031572D2*
X1170073Y2038757D1*
X1165745Y2041134D1*
X1159328D1*
X1155001Y2038757D1*
X1152812Y2031572D1*
Y2007641D1*
X1128172Y2041134D2*
X1132450Y2038757D1*
X1136778Y2033949D1*
X1138917Y2026764D1*
Y2022011D1*
X1136778Y2014826D1*
X1132450Y2010072D1*
X1128172Y2007641D1*
X1121706D1*
X1117378Y2010072D1*
X1113100Y2014826D1*
X1110912Y2022011D1*
Y2026764D1*
X1113100Y2033949D1*
X1117378Y2038757D1*
X1121706Y2041134D1*
X1128172D1*
X1097016D2*
Y2007641D1*
Y2026764D2*
X1094828Y2033949D1*
X1090550Y2038757D1*
X1086222Y2041134D1*
X1079756D1*
X1065860Y2026764D2*
X1040044D1*
Y2031572D1*
X1042183Y2036381D1*
X1044322Y2038757D1*
X1048650Y2041134D1*
X1055116D1*
X1059394Y2038757D1*
X1063722Y2033949D1*
X1065860Y2026764D1*
Y2022011D1*
X1063722Y2014826D1*
X1059394Y2010072D1*
X1055116Y2007641D1*
X1048650D1*
X1044322Y2010072D1*
X1040044Y2014826D1*
X956592Y2041134D2*
Y2007641D1*
Y2033949D2*
X960869Y2038757D1*
X965197Y2041134D1*
X971614D1*
X975941Y2038757D1*
X980219Y2033949D1*
X982408Y2026764D1*
Y2022011D1*
X980219Y2014826D1*
X975941Y2010072D1*
X971614Y2007641D1*
X965197D1*
X960869Y2010072D1*
X956592Y2014826D1*
X936230Y2057881D2*
Y2017202D1*
X934091Y2010072D1*
X929763Y2007641D1*
X925485D1*
X942696Y2041134D2*
X927624D1*
M02*
