G04 DipTrace 3.3.1.2*
G04 Top.gbr*
%MOIN*%
G04 #@! TF.FileFunction,Copper,L1,Top*
G04 #@! TF.Part,Single*
G04 #@! TA.AperFunction,Conductor*
%ADD13C,0.01*%
%ADD16C,0.008*%
%ADD19R,0.062992X0.106299*%
%ADD20R,0.027559X0.035433*%
G04 #@! TA.AperFunction,ComponentPad*
%ADD21C,0.059055*%
%ADD22R,0.059055X0.059055*%
%ADD23R,0.07874X0.07874*%
%ADD24C,0.06*%
%ADD25C,0.06*%
%ADD27O,0.033465X0.011811*%
%ADD28O,0.011811X0.033465*%
%ADD29R,0.071654X0.071654*%
G04 #@! TA.AperFunction,ViaPad*
%ADD30C,0.04*%
%FSLAX26Y26*%
G04*
G70*
G90*
G75*
G01*
G04 Top*
%LPD*%
X1392967Y1378348D2*
D13*
Y1334089D1*
X1475331Y1251726D1*
Y729558D1*
X1373282Y1378348D2*
Y1324822D1*
X1453774Y1244329D1*
Y903799D1*
X1325500Y775525D1*
X573580D1*
X1373282Y1500395D2*
Y1870760D1*
X1219605Y2024437D1*
X947718D1*
X846448Y2125707D1*
X1412652Y1500395D2*
Y1886727D1*
X1173672Y2125707D1*
X1209705D1*
X1353597Y1500395D2*
Y1863214D1*
X1213470Y2003341D1*
X868814D1*
X746448Y2125707D1*
X1412652Y1378348D2*
Y1343766D1*
X1516463Y1239955D1*
Y1125949D1*
X1528937D1*
X1392967Y1500395D2*
Y1879920D1*
X1228596Y2044291D1*
X1191121D1*
X1109705Y2125707D1*
X1322101Y1468899D2*
D16*
Y1469287D1*
X1306273D1*
X1269270Y1506291D1*
Y1538143D1*
X1444148Y1409844D2*
Y1410010D1*
X1480094D1*
X1574849Y1315256D1*
Y1243512D1*
X1444148Y1468899D2*
D13*
X1468762D1*
X1507207Y1507344D1*
X1537730D1*
X1444148Y1449214D2*
X1530781D1*
X1537730Y1456163D1*
X1322101Y1449214D2*
X1265567D1*
X1264849Y1448496D1*
X1322101Y1409844D2*
X1300442D1*
X1286550Y1395951D1*
X1263486D1*
X1264849Y1397315D1*
D30*
X1269270Y1538143D3*
X1574849Y1243512D3*
D19*
X852203Y469209D3*
X962440D3*
X1076081Y470014D3*
X1186318D3*
D20*
X1264849Y1397315D3*
Y1448496D3*
X1537730Y1456163D3*
Y1507344D3*
D21*
X846448Y2125707D3*
D22*
X746448D3*
D21*
X1209705D3*
D22*
X1109705D3*
D23*
X962610Y2271438D3*
D24*
X573580Y775525D3*
D25*
X503255Y1169294D3*
D24*
X1475331Y729558D3*
D25*
X1528937Y1125949D3*
D27*
X1322101Y1468899D3*
Y1449214D3*
Y1429529D3*
Y1409844D3*
D28*
X1353597Y1378348D3*
X1373282D3*
X1392967D3*
X1412652D3*
D27*
X1444148Y1409844D3*
Y1429529D3*
Y1449214D3*
Y1468899D3*
D28*
X1412652Y1500395D3*
X1392967D3*
X1373282D3*
X1353597D3*
D29*
X1383125Y1439371D3*
M02*
